<svg width="21" height="19" viewBox="0 0 21 19" fill="none" xmlns="http://www.w3.org/2000/svg">
<path d="M21 5.89655L10.5083 -4.98472e-07L7.94098e-09 5.96189L21 5.89655Z" transform="translate(0 12.239)" fill="#662D91"/>
<path d="M0.0666133 0L-1.27056e-07 12.0381L10.5749 17.9347L0.0666133 0Z" transform="translate(10.4258 0.201172)" fill="#9E1F63"/>
<path d="M7.94098e-09 18L10.4584 12.1361L10.4917 0L7.94098e-09 18Z" transform="translate(0 0.201172)" fill="#FF5000"/>
<path d="M4.22998 -1.24618e-07L2.54111e-07 7.13793H8.57653L4.22998 -1.24618e-07Z" transform="translate(6.19531 7.51843)" fill="white"/>
<path d="M4.22998 -1.24618e-07L2.54111e-07 7.13793H8.57653L4.22998 -1.24618e-07Z" transform="translate(6.19531 7.51843)" stroke="#FF5000" stroke-width="0.83" stroke-miterlimit="10"/>
</svg>
