<svg width="24" height="24" viewBox="0 0 24 24" fill="none" xmlns="http://www.w3.org/2000/svg">
<path fill-rule="evenodd" clip-rule="evenodd" d="M11.5 23C17.8513 23 23 17.8513 23 11.5C23 5.14873 17.8513 0 11.5 0C5.14873 0 0 5.14873 0 11.5C0 17.8513 5.14873 23 11.5 23Z" transform="translate(0.839844 0.599609)" fill="#4BCF51"/>
<mask id="mask0" mask-type="alpha" maskUnits="userSpaceOnUse" x="0" y="0" width="24" height="24">
<path fill-rule="evenodd" clip-rule="evenodd" d="M11.5 23C17.8513 23 23 17.8513 23 11.5C23 5.14873 17.8513 0 11.5 0C5.14873 0 0 5.14873 0 11.5C0 17.8513 5.14873 23 11.5 23Z" transform="translate(0.839844 0.599609)" fill="white"/>
</mask>
<g mask="url(#mask0)">
</g>
<path fill-rule="evenodd" clip-rule="evenodd" d="M2.2073 1.47238L2.31001 1.47417L2.01137 2.60079C1.97472 2.67209 2.01186 2.70932 2.08405 2.70928L2.26942 2.75541C2.50657 2.8134 2.76357 2.87607 3.01708 2.96042C3.34219 3.06919 3.52099 3.39231 3.44994 3.67943C3.05968 5.3632 2.64047 7.01898 2.22272 8.67223L2.09255 9.17893L2.08223 9.21244C2.04864 9.46593 1.83094 9.60862 1.54346 9.53624C1.29312 9.50109 1.00515 9.42955 0.753526 9.35757C0.64548 9.35721 0.609628 9.35681 0.574261 9.46494C0.48452 9.70632 0.366564 9.97312 0.246655 10.2433L0.179097 10.3994C0.138046 10.4783 0.108191 10.5456 0.0807417 10.6166L0 10.7955C0.863416 11.011 1.68662 11.2258 2.5137 11.4417C2.51303 11.4819 2.50079 11.5109 2.49148 11.5348L2.48011 11.5858C2.31056 12.1216 2.17576 12.6911 2.04095 13.2605L2.01133 13.3821C1.97468 13.4534 1.97597 13.4902 2.08192 13.5255C2.44159 13.5978 2.80175 13.6693 3.16272 13.7785C3.26867 13.8137 3.27076 13.7788 3.30404 13.7056L3.39971 13.3289L3.43072 13.2205L3.46172 13.1121L3.5574 12.7355C3.59252 12.5731 3.63685 12.4104 3.68118 12.2477C3.72841 12.0877 3.77225 11.9259 3.80689 11.7643C4.10263 11.8302 4.36301 11.8948 4.62727 11.9606L4.70615 11.9802C4.75885 12.0061 4.75341 12.0311 4.74936 12.0694L4.74427 12.1251C4.57473 12.6609 4.43992 13.2304 4.30511 13.7998L4.2755 13.9214C4.23884 13.9927 4.24013 14.0295 4.34608 14.0648C4.51017 14.1009 4.68633 14.1473 4.85861 14.1927L5.35469 14.3178C5.53461 14.389 5.53332 14.3522 5.57078 14.2092L6.00112 12.4482C6.03648 12.34 6.10739 12.3032 6.21672 12.3403C6.93478 12.4482 7.65542 12.5203 8.40835 12.4115C8.98234 12.3392 9.48735 12.0895 9.88334 11.6224C10.2063 11.227 10.3841 10.794 10.5298 10.2918C10.6362 9.89651 10.673 9.46557 10.5997 9.06916C10.4566 8.56705 10.1705 8.17186 9.73929 7.84847C9.66685 7.79424 9.59389 7.74873 9.52432 7.70518C9.45136 7.65968 9.3784 7.61417 9.30596 7.55994C9.34715 7.55892 9.38014 7.54865 9.40393 7.5387L9.45195 7.52583C9.73637 7.41602 10.0263 7.27329 10.2414 7.05694C10.529 6.7697 10.6731 6.41083 10.78 6.01473C10.9225 5.43964 10.8888 4.86533 10.5641 4.32608C10.3118 3.96617 9.99042 3.67912 9.63187 3.46421L8.44575 2.92487C8.33593 2.88853 8.30217 2.85325 8.33753 2.74512C8.40956 2.56569 8.44573 2.38585 8.48141 2.20686L8.56822 1.86118L8.80324 0.875996C8.78531 0.875795 8.77663 0.867398 8.76843 0.858156C8.75975 0.849759 8.75155 0.840517 8.73314 0.841162L8.23369 0.714054C8.02412 0.662973 7.82229 0.614108 7.61858 0.552878C7.5451 0.516091 7.51054 0.552518 7.50974 0.624223L7.40074 1.0552C7.25718 1.5226 7.15205 1.95468 7.04435 2.42249L7.00441 2.46822C6.98199 2.49925 6.95618 2.52833 6.9334 2.52871L6.03801 2.31396C6.07128 2.2407 6.07337 2.20583 6.07159 2.16984L6.50242 0.408005C6.53908 0.336702 6.54117 0.301826 6.43184 0.264637C6.07167 0.193142 5.74785 0.121203 5.39027 0.0139867C5.28094 -0.0232021 5.24589 0.0140706 5.21052 0.122202L4.77809 1.91807C4.74272 2.0262 4.70816 2.06263 4.59883 2.02544L4.08483 1.90009L4.01707 1.88464L3.95753 1.87057C3.77409 1.82893 3.59451 1.7884 3.41159 1.73805C3.21269 1.68411 3.01327 1.63888 2.81386 1.59366L2.62075 1.54532C2.5225 1.52017 2.42088 1.49307 2.31001 1.47417L2.33369 1.37846L2.2073 1.47238ZM4.05893 10.3278C4.09478 10.3282 4.12903 10.3626 4.12903 10.3626L4.40828 10.4336C4.89902 10.5602 5.41347 10.6926 5.92788 10.7234C6.35846 10.7589 6.75141 10.758 7.14934 10.6156C7.83298 10.4003 8.11801 9.50035 7.72375 8.92541C7.54237 8.63801 7.25779 8.45905 6.96933 8.27898C6.34391 7.93255 5.62118 7.78592 4.92555 7.64703L4.84858 7.63191C4.74263 7.59668 4.74054 7.63155 4.70517 7.73969C4.66949 7.91868 4.62512 8.08927 4.58076 8.25986C4.5359 8.4313 4.49105 8.60274 4.45488 8.78258C4.3757 9.04471 4.3125 9.31043 4.24735 9.57953L4.22809 9.65975L4.05893 10.3278ZM7.47493 6.59076C7.32894 6.62487 7.14999 6.66138 7.0778 6.66142C6.66306 6.66103 6.30331 6.60443 5.93485 6.54732L5.49859 6.48263L5.10129 6.3739C5.03119 6.33907 4.99405 6.30184 5.0307 6.23054C5.24531 5.47601 5.42584 4.75707 5.6046 4.00214C5.63997 3.89401 5.67791 3.85953 5.78435 3.89392L6.10957 3.97907C6.52626 4.08546 6.92698 4.18827 7.33175 4.36219C7.65476 4.50584 7.97698 4.72119 8.15578 5.04431C8.51547 5.65567 8.15777 6.44711 7.47493 6.59076Z" transform="translate(4.05469 8.68262) rotate(-30)" fill="white"/>
</svg>
