<svg width="24" height="24" viewBox="0 0 26 26" version="1.1" xmlns="http://www.w3.org/2000/svg" xmlns:xlink="http://www.w3.org/1999/xlink">
<g id="Canvas" fill="none">
<g id="btc-icon-26">
<g id="Group">
<g id="Vector">
<path d="M 25.6109 16.1449C 23.8744 23.1091 16.8199 27.3475 9.85402 25.6108C 2.89096 23.8745 -1.34789 16.8204 0.389416 9.85658C 2.1251 2.89149 9.17957 -1.34728 16.1434 0.389019C 23.1089 2.12531 27.3474 9.18018 25.6109 16.1449Z" fill="#F7931A"/>
</g>
<g id="Vector_2">
<path d="M 12.4058 6.61815C 12.6646 4.88836 11.3474 3.95846 9.54626 3.33812L 10.1305 0.994896L 8.70402 0.639431L 8.13521 2.92091C 7.7602 2.82747 7.37503 2.73932 6.99231 2.65197L 7.56518 0.355465L 6.1395 -4.95906e-08L 5.55484 2.34241C 5.24443 2.27173 4.93971 2.20185 4.64393 2.12832L 4.64556 2.12101L 2.67828 1.62986L 2.29881 3.15328C 2.29881 3.15328 3.3572 3.39581 3.33485 3.41084C 3.9126 3.55506 4.01702 3.93733 3.99955 4.24039L 3.33404 6.90984C 3.37386 6.91999 3.42546 6.93462 3.48234 6.95737C 3.4348 6.94559 3.38402 6.93259 3.3316 6.91999L 2.39876 10.6595C 2.32806 10.835 2.14889 11.0982 1.74503 10.9983C 1.75925 11.019 0.708169 10.7395 0.708169 10.7395L 9.91927e-08 12.3722L 1.85635 12.8349C 2.2017 12.9215 2.54015 13.0121 2.87331 13.0974L 2.28296 15.4674L 3.70783 15.8229L 4.29249 13.478C 4.68172 13.5836 5.05957 13.6811 5.4293 13.773L 4.84667 16.1068L 6.27317 16.4623L 6.86351 14.0967C 9.29599 14.557 11.1251 14.3714 11.895 12.1715C 12.5155 10.4003 11.8642 9.37859 10.5843 8.71235C 11.5164 8.49744 12.2185 7.88442 12.4058 6.61815L 12.4058 6.61815ZM 9.14647 11.188C 8.70565 12.9592 5.72305 12.0017 4.75607 11.7616L 5.5394 8.62176C 6.50638 8.86307 9.60721 9.34081 9.14647 11.188ZM 9.58771 6.59256C 9.18548 8.20373 6.70303 7.38514 5.89775 7.18446L 6.60795 4.33667C 7.41323 4.53736 10.0066 4.91192 9.58771 6.59256L 9.58771 6.59256Z" transform="translate(6.33008 4.53027)" fill="white"/>
</g>
</g>
</g>
</g>
</svg>

