<svg width="23" height="24" viewBox="0 0 23 24" fill="none" xmlns="http://www.w3.org/2000/svg">
<path d="M10.891 0H12.0889C13.3394 0.0822247 14.5827 0.331774 15.7443 0.801892C18.6194 1.9328 20.9924 4.27672 22.1501 7.14308C23.7441 10.9592 23.0602 15.613 20.3984 18.7877C18.5974 20.9974 15.9493 22.5038 13.1217 22.8863C10.4682 23.2646 7.68435 22.693 5.41461 21.2592C3.66434 20.1694 2.2155 18.5999 1.2766 16.7627C0.0729552 14.4546 -0.292992 11.7268 0.236033 9.17995C0.802089 6.35763 2.48669 3.78348 4.8359 2.12335C6.59582 0.850996 8.72894 0.134319 10.891 0ZM10.178 0.520833C6.67943 0.922526 3.46389 3.12534 1.79585 6.2232C0.667763 8.28353 0.216827 10.7124 0.558163 13.0386C0.943315 15.8405 2.46725 18.4613 4.69835 20.1954C6.39652 21.5347 8.49778 22.3574 10.6556 22.5184C13.0995 22.7131 15.6022 22.0606 17.6308 20.6843C20.1185 19.0379 21.8839 16.3444 22.391 13.4042C22.683 11.6716 22.5842 9.86627 22.0483 8.18981C21.2835 5.75262 19.6447 3.59914 17.4941 2.2188C15.3555 0.815577 12.7157 0.206999 10.1787 0.520833H10.178Z" transform="translate(0 0.201172)" fill="#00206B"/>
<path d="M5.48159 0.085971C7.48118 -0.248908 9.62638 0.40659 11.0642 1.8419C12.3407 3.04675 13.0859 4.79865 13.0488 6.55458C13.0735 8.30096 12.3251 10.0391 11.0545 11.2344C9.67157 12.6092 7.6361 13.2658 5.70769 13.0123C3.8906 12.7938 2.18922 11.7607 1.15716 10.2488C0.0155011 8.62906 -0.299728 6.47373 0.293354 4.58625C0.988216 2.26418 3.08534 0.447875 5.48124 0.0860862L5.48159 0.085971ZM5.88008 0.48364C5.88146 1.05526 5.88192 1.62689 5.88146 2.19851C6.16652 2.19851 6.45162 2.19897 6.73676 2.19989C6.73814 1.61339 6.73952 1.0269 6.73676 0.441205C6.45166 0.45075 6.16518 0.464204 5.88008 0.483754V0.48364ZM7.93741 2.226C8.68874 2.32708 9.49619 2.44208 10.0951 2.94946C11.0093 3.77056 10.8914 5.49497 9.77163 6.08987C10.4419 6.24615 11.1057 6.69304 11.2711 7.39753C11.4862 8.32143 11.3149 9.42899 10.5734 10.0801C9.83879 10.6847 8.84365 10.7641 7.935 10.8506C7.93914 11.3852 7.93776 11.9201 7.93638 12.4558C9.84845 11.9883 11.4987 10.5642 12.2004 8.72186C12.8665 7.02217 12.709 5.02221 11.7687 3.45672C10.9381 2.04487 9.52609 1.00723 7.94052 0.609679C7.93637 1.14834 7.93638 1.68711 7.93776 2.22577L7.93741 2.226ZM2.23039 2.20277C3.05843 2.24256 3.8875 2.23428 4.71669 2.2329C4.71669 1.72851 4.71807 1.22401 4.71393 0.719618C3.78595 1.02115 2.95952 1.5613 2.22981 2.20311L2.23039 2.20277ZM2.12286 2.23761C1.88434 2.69128 1.5047 3.05043 1.26342 3.50261C0.288869 5.16262 0.179269 7.29138 0.992011 9.03776C1.69354 10.6031 3.08511 11.8208 4.71462 12.3454C4.71738 11.8423 4.716 11.3379 4.716 10.8349C3.88405 10.8266 3.05072 10.8568 2.22038 10.8119C2.22993 10.3485 2.33826 9.89485 2.4964 9.45889C2.90351 9.45061 3.32834 9.52191 3.72178 9.38897C3.95179 9.19566 3.88623 8.8763 3.89854 8.6118C3.88623 7.09991 3.90406 5.58789 3.89026 4.07599C3.90533 3.83197 3.75225 3.56885 3.49924 3.52089C3.0812 3.43729 2.65223 3.47018 2.23004 3.46742C2.18071 3.12748 2.17519 2.7834 2.16978 2.43932L2.31503 2.49004C2.25201 2.40643 2.18761 2.32145 2.12309 2.23784L2.12286 2.23761ZM5.91608 3.56908V5.798C6.66028 5.78431 7.48544 5.867 8.13648 5.43471C8.67701 5.08109 8.64251 4.18455 8.08439 3.86658C7.43334 3.48007 6.63831 3.58966 5.91608 3.56908ZM5.91608 6.99733V9.46982C6.83439 9.39576 7.86507 9.55032 8.6647 8.99556C9.23628 8.61606 9.16774 7.67686 8.57833 7.34796C7.7779 6.86956 6.80472 7.02171 5.91654 6.9971L5.91608 6.99733ZM5.88204 10.8681C5.88204 11.4397 5.88112 12.0118 5.87928 12.5842C6.17668 12.6034 6.47408 12.6157 6.7716 12.624C6.77436 12.0387 6.77298 11.4534 6.77298 10.8681H5.88204Z" transform="translate(4.97266 5.16547)" fill="#00206B"/>
<path d="M9.19874 0.0663198C11.2136 -0.150224 13.2997 0.156824 15.11 1.08614C17.4388 2.22797 19.3014 4.2814 20.2184 6.70628C21.1546 9.1353 21.134 11.9138 20.165 14.3307C18.6901 18.1401 14.7975 20.8802 10.6993 20.8857C8.2925 20.9735 5.8706 20.1633 3.98589 18.6662C1.97514 17.1036 0.585304 14.7677 0.156219 12.2579C-0.281951 9.77136 0.208776 7.12982 1.53835 4.98048C3.16246 2.28558 6.07324 0.422703 9.19874 0.0663198ZM8.84786 3.44121C7.20995 3.8099 5.71327 4.77762 4.70859 6.12369C3.60063 7.58223 3.09265 9.478 3.31875 11.2943C3.53116 13.2378 4.59347 15.0708 6.17237 16.2221C7.64996 17.3325 9.57021 17.8206 11.3999 17.5696C13.6601 17.2936 15.7381 15.8547 16.7921 13.8371C17.5816 12.3977 17.7981 10.6861 17.5089 9.07918C17.1402 7.13132 15.9231 5.3617 14.2303 4.32809C12.6445 3.34208 10.6668 3.02583 8.84786 3.44121Z" transform="translate(1.04688 1.25189)" fill="#EBA809"/>
</svg>
