<svg width="23" height="24" viewBox="0 0 23 24" fill="none" xmlns="http://www.w3.org/2000/svg">
<path d="M11.5 23C17.8513 23 23 17.8513 23 11.5C23 5.14873 17.8513 0 11.5 0C5.14873 0 0 5.14873 0 11.5C0 17.8513 5.14873 23 11.5 23Z" transform="translate(0 0.201172)" fill="#C3A634"/>
<path fill-rule="evenodd" clip-rule="evenodd" d="M3.0531 4.7514H6.1539V6.39426H3.0531V9.85714H5.00899C5.78287 9.85714 6.41627 9.75245 6.90922 9.54307C7.40217 9.33368 7.78911 9.04377 8.07004 8.67332C8.35097 8.30287 8.54178 7.868 8.64249 7.3687C8.7432 6.86939 8.79356 6.32983 8.79356 5.75C8.79356 5.17017 8.7432 4.6306 8.64249 4.1313C8.54178 3.632 8.35097 3.19713 8.07004 2.82668C7.78911 2.45623 7.40217 2.16632 6.90922 1.95693C6.41627 1.74755 5.78287 1.64286 5.00899 1.64286H3.0531V4.7514ZM1.0654 6.39426H0V4.7514H1.0654V0H5.77226C6.64155 0 7.39422 0.150325 8.03028 0.45098C8.66635 0.751635 9.18579 1.16235 9.58863 1.68312C9.99148 2.2039 10.291 2.81325 10.4871 3.5112C10.6832 4.20915 10.7812 4.95541 10.7812 5.75C10.7812 6.54459 10.6832 7.29085 10.4871 7.9888C10.291 8.68674 9.99148 9.2961 9.58863 9.81688C9.18579 10.3377 8.66635 10.7484 8.03028 11.049C7.39422 11.3497 6.64155 11.5 5.77226 11.5H1.0654V6.39426Z" transform="translate(6.46875 5.95117)" fill="white"/>
</svg>
