<svg width="14" height="23" viewBox="0 0 14 23" fill="none" xmlns="http://www.w3.org/2000/svg">
<path d="M0 6.51077V0L6.9641 10.1554L0 6.51077Z" transform="translate(7.03516 0.484009)" fill="#0C8312"/>
<path d="M0 3.64462V10.1554L6.9641 0L0 3.64462Z" transform="translate(7.03516 12.7269)" fill="#0C8312"/>
<path d="M0 4.14V0L6.82051 3.53846L0 4.14Z" transform="translate(7.03516 8.16266)" fill="#0C8312"/>
<path d="M0 3.60923V0.601539L6.82051 0L0 3.60923Z" transform="translate(7.03516 11.7012)" fill="#034C03"/>
<path d="M6.9641 6.51077V0L0 10.1554L6.9641 6.51077Z" transform="translate(0.0703125 0.484009)" fill="#3CB93C"/>
<path d="M6.9641 3.64462V10.1554L0 0L6.9641 3.64462Z" transform="translate(0.0703125 12.7269)" fill="#3CB93C"/>
<path d="M6.82051 4.14V0L0 3.53846L6.82051 4.14Z" transform="translate(0.214844 8.16266)" fill="#3CB93C"/>
<path d="M6.82051 3.60923V0.601539L0 0L6.82051 3.60923Z" transform="translate(0.214844 11.7012)" fill="#166816"/>
</svg>
