<svg width="15" height="24" viewBox="0 0 15 24" fill="none" xmlns="http://www.w3.org/2000/svg">
<path d="M7.0359 0C7.0359 0.0726712 7.0359 0.145342 7.0359 0.218014C7.0359 2.90685 7.0359 5.63202 7.0359 8.32085C7.0359 8.35718 7.0359 8.42985 7.0359 8.46619C7.0359 8.50253 7 8.53886 6.9641 8.53886C6.71282 8.64787 6.49744 8.75688 6.24615 8.86588C5.92308 9.01122 5.5641 9.15657 5.24103 9.33825C4.84615 9.51992 4.45128 9.7016 4.05641 9.88328C3.73333 10.0286 3.41026 10.174 3.08718 10.3193C2.69231 10.501 2.29744 10.6827 1.90256 10.8643C1.57949 11.0097 1.25641 11.155 0.897436 11.3367C0.646154 11.4457 0.358974 11.5911 0.107692 11.7001C0.0717949 11.7001 0.0717949 11.7364 0.0358974 11.7001C0 11.6637 0.0358974 11.7001 0 11.7001C0.107692 11.5184 0.215385 11.373 0.323077 11.1914C0.897436 10.2103 1.50769 9.22924 2.08205 8.24818C2.69231 7.19445 3.33846 6.14071 3.94872 5.08698C4.52308 4.10592 5.09744 3.12486 5.67179 2.18014C6.10256 1.45342 6.53333 0.763047 6.92821 0.0363356C7 0.0363356 7 0 7.0359 0Z" transform="translate(0.0859375 0.599609)" fill="#8A92B2"/>
<path d="M7 3.19753C6.46154 3.56089 5.88718 3.88791 5.34872 4.21493C3.58974 5.26866 1.86667 6.28606 0.107692 7.33979C0.0717949 7.33979 0.0717949 7.37612 0.0358974 7.37612C0 7.37612 0 7.33979 0 7.33979C0 7.30345 0 7.26712 0 7.23078C0 4.86897 0 2.50716 0 0.145342C0 0.109007 0 0.0726712 0 0.0363356C0 0 0.0358974 0 0.0717949 0C0.215385 0.0726712 0.358974 0.145342 0.538462 0.218014C0.969231 0.436027 1.4359 0.617705 1.86667 0.835718C2.26154 1.0174 2.62051 1.19907 3.01538 1.34442C3.41026 1.52609 3.76923 1.70777 4.1641 1.88945C4.48718 2.03479 4.84615 2.18014 5.16923 2.36181C5.49231 2.50716 5.85128 2.6525 6.17436 2.83418C6.42564 2.94318 6.67692 3.08852 6.9641 3.19753C6.9641 3.1612 6.9641 3.19753 7 3.19753Z" transform="translate(7.08594 9.10156)" fill="#454A75"/>
<path d="M7 9.91961C7 9.91961 6.9641 9.91961 7 9.91961C6.9641 9.91961 6.9641 9.91962 6.92821 9.88328C6.21026 8.86588 5.5282 7.88482 4.81026 6.86743C4.09231 5.85003 3.37436 4.83263 2.65641 3.81524C1.97436 2.83418 1.25641 1.85311 0.574359 0.835718C0.394872 0.581369 0.215385 0.32702 0.0358974 0.0726712C0.0358974 0.0363356 0 0.0363356 0 0C0.0358974 0 0.0358974 0.0363356 0.0717949 0.0363356C1.04103 0.617705 2.04615 1.19907 3.01538 1.78044C4.1282 2.47082 5.27692 3.12486 6.38974 3.81524C6.56923 3.92424 6.78462 4.03325 6.9641 4.14226C7 4.14226 7 4.17859 7 4.21493C7 4.25126 7 4.2876 7 4.32393C7 6.14071 7 7.92116 7 9.73794C7 9.77427 7 9.84694 7 9.91961Z" transform="translate(0.121094 13.6797)" fill="#8A92B2"/>
<path d="M0 0C0 0 0.0358974 0 0 0C0.0358974 0 0.0358974 0 0 0C0 0.0363356 0 0.0363356 0 0Z" transform="translate(0.121094 12.2998)" fill="#808080"/>
<path d="M0 3.2702C0 3.23387 0 3.23387 0 3.2702C0.358974 3.08852 0.717949 2.94318 1.07692 2.7615C1.54359 2.54349 2.01026 2.32548 2.47692 2.10746C2.8359 1.92579 3.19487 1.78044 3.55385 1.59877C4.05641 1.34442 4.59487 1.1264 5.09744 0.872054C5.45641 0.726712 5.81538 0.545034 6.17436 0.399691C6.42564 0.290685 6.67692 0.181678 6.92821 0.0363356C6.9641 0.0363356 6.9641 0 7 0C7 0 7 0 7 0.0363356C7 0.0726712 7 0.0726712 7 0.109007C7 2.50716 7 4.9053 7 7.30345C7 7.33979 7 7.37612 7 7.41246C6.9641 7.44879 6.9641 7.41246 6.92821 7.41246C6.82051 7.33979 6.71282 7.30345 6.64103 7.23078C4.45128 5.9227 2.26154 4.61462 0.0717949 3.30654C0.0358974 3.2702 0 3.2702 0 3.2702Z" transform="translate(0.15625 9.06641)" fill="#62688F"/>
<path d="M6.9282 0C6.9282 0.0363356 6.92821 0.0363356 6.89231 0.0726712C4.81026 3.05219 2.7282 5.99537 0.646154 8.97489C0.430769 9.30191 0.215385 9.59259 0 9.91961C0 9.91961 0 9.91962 0 9.88328C0 9.84694 0 9.84694 0 9.81061C0 7.95749 0 6.10438 0 4.25126C0 4.21493 0 4.17859 0 4.14226C0.466667 3.85157 0.933333 3.56089 1.4 3.30654C3.23077 2.21647 5.06154 1.1264 6.89231 0.0363356C6.89231 0 6.9282 0 6.9282 0Z" transform="translate(7.12109 13.6797)" fill="#62688F"/>
<path d="M0 8.46619C0 8.42986 0 8.39352 0 8.39352C0 5.63202 0 2.83418 0 0.0726712C0 0.0363356 0 0 0 0C2.29744 3.85157 4.59487 7.70314 6.89231 11.5547C6.92821 11.5911 6.9641 11.6274 6.9641 11.6637C6.82051 11.5911 6.67692 11.5184 6.49744 11.4457C6.31795 11.373 6.13846 11.264 5.95897 11.1914C5.85128 11.155 5.74359 11.0824 5.6 11.046C5.42051 10.9733 5.20513 10.8643 5.02564 10.7917C4.91795 10.7553 4.81026 10.6827 4.70256 10.6463C4.45128 10.5373 4.2 10.4283 3.94872 10.3193C3.80513 10.2466 3.69744 10.2103 3.55385 10.1376C3.37436 10.065 3.19487 9.95595 3.01538 9.88328C2.90769 9.84694 2.8 9.77427 2.69231 9.73794C2.44103 9.62893 2.18974 9.51992 1.93846 9.41092C1.79487 9.33825 1.68718 9.30191 1.54359 9.22924C1.3641 9.15657 1.18462 9.04756 1.00513 8.97489C0.897436 8.90222 0.753846 8.86588 0.646154 8.79321C0.430769 8.68421 0.215385 8.5752 0 8.46619Z" transform="translate(7.12109 0.635742)" fill="#62688F"/>
</svg>
