<svg width="24" height="24" viewBox="0 0 24 24" fill="none" xmlns="http://www.w3.org/2000/svg">
<path d="M11.5 23C17.8513 23 23 17.8513 23 11.5C23 5.14873 17.8513 0 11.5 0C5.14873 0 0 5.14873 0 11.5C0 17.8513 5.14873 23 11.5 23Z" transform="translate(0.65625 0.612305)" fill="#F0F0F0"/>
<path d="M1.9811 -7.67708e-08C1.07777 1.17529 0.396615 2.52991 1.09673e-08 4.00151H5.98261L1.9811 -7.67708e-08Z" transform="translate(1.05469 5.10938)" fill="#045CC7"/>
<path d="M5.98252 4.00146C5.5859 2.52991 4.9047 1.17529 4.00142 -1.01447e-07L2.19345e-07 4.00146H5.98252Z" transform="translate(17.2773 5.10938)" fill="#045CC7"/>
<path d="M1.09673e-08 -1.53542e-07C0.39666 1.47155 1.07781 2.82617 1.9811 4.00142L5.98247 -1.53542e-07H1.09673e-08Z" transform="translate(1.05469 15.1113)" fill="#045CC7"/>
<path d="M4.00146 1.98114C2.82617 1.07781 1.4716 0.39666 5.81264e-07 1.09673e-08V5.98256L4.00146 1.98114Z" transform="translate(15.1562 1.00781)" fill="#045CC7"/>
<path d="M-7.67708e-08 4.00137C1.17529 4.9047 2.52991 5.58585 4.00146 5.98251V2.19345e-07L-7.67708e-08 4.00137Z" transform="translate(5.15625 17.2324)" fill="#045CC7"/>
<path d="M4.00142 1.09673e-08C2.52987 0.39666 1.17525 1.07781 -7.67708e-08 1.9811L4.00142 5.98251V1.09673e-08Z" transform="translate(5.15625 1.00781)" fill="#045CC7"/>
<path d="M-4.71592e-07 5.98251C1.47155 5.58585 2.82617 4.9047 4.00142 4.00141L-4.71592e-07 2.19345e-07V5.98251Z" transform="translate(15.1562 17.2324)" fill="#045CC7"/>
<path d="M2.19345e-07 -1.53542e-07L4.00142 4.00146C4.9047 2.82621 5.5859 1.47155 5.98252 -1.53542e-07H2.19345e-07Z" transform="translate(17.2773 15.1113)" fill="#045CC7"/>
<path d="M22.9027 10H13.0001H13V0.0973457C12.509 0.0334219 12.0084 0 11.5 0C10.9915 0 10.491 0.0334219 10 0.0973457V9.99992V9.99997H0.0973457C0.0334219 10.491 0 10.9916 0 11.5C0 12.0085 0.0334219 12.509 0.0973457 13H9.99992H9.99997V22.9027C10.491 22.9666 10.9915 23 11.5 23C12.0084 23 12.509 22.9666 13 22.9027V13.0001V13H22.9027C22.9666 12.509 23 12.0085 23 11.5C23 10.9916 22.9666 10.491 22.9027 10Z" transform="translate(0.65625 0.612305)" fill="#D80027"/>
<path d="M-4.71592e-07 4.47683e-05L5.1317 5.13174C5.36772 4.89581 5.59286 4.64914 5.80768 4.39345L1.41423 -4.71592e-07H-4.71592e-07V4.47683e-05Z" transform="translate(15.1562 15.1133)" fill="#D80027"/>
<path d="M5.13174 -1.53542e-07H5.13165L1.508e-07 5.13165C0.23593 5.36767 0.482596 5.59282 0.738291 5.80763L5.13174 1.4141V-1.53542e-07Z" transform="translate(4.02734 15.1133)" fill="#D80027"/>
<path d="M5.80768 5.13183V5.13174L0.675984 1.508e-07C0.439965 0.23593 0.214816 0.482596 -6.03199e-08 0.738291L4.39349 5.13178H5.80768V5.13183Z" transform="translate(3.34766 3.98047)" fill="#D80027"/>
<path d="M-4.71592e-07 5.80772L5.13174 0.675939C4.89581 0.43992 4.64915 0.214771 4.39345 -8.49962e-08L-4.71592e-07 4.39349V5.80772V5.80772Z" transform="translate(15.1562 3.30469)" fill="#D80027"/>
</svg>
