<svg width="23" height="24" viewBox="0 0 23 24" fill="none" xmlns="http://www.w3.org/2000/svg">
<path d="M11.5 23C17.8513 23 23 17.8513 23 11.5C23 5.14873 17.8513 0 11.5 0C5.14873 0 0 5.14873 0 11.5C0 17.8513 5.14873 23 11.5 23Z" transform="translate(0 0.201172)" fill="#001D57"/>
<path d="M6.46797 1.22215e-07L7.33278 0.865847L5.69595 2.54776C6.04062 3.07248 6.22679 3.69093 6.22679 4.3289C6.22679 5.18347 5.90703 5.97868 5.32227 6.57952C4.88573 7.03705 4.33382 7.33989 3.72896 7.46045V8.92601C4.3274 9.04718 4.87959 9.35148 5.3198 9.80382C5.90703 10.4072 6.22679 11.2024 6.22679 12.057C6.22679 12.9116 5.90703 13.7068 5.3198 14.3102C4.73298 14.9132 3.94574 15.2462 3.1134 15.2462C2.27513 15.2462 1.49607 14.9155 0.906993 14.3102C0.322025 13.7091 0 12.9055 0 12.057C0 11.2085 0.322025 10.4049 0.904526 9.80638C1.34107 9.34884 1.89298 9.046 2.49783 8.92544V7.45988C1.8994 7.33871 1.34721 7.03441 0.906993 6.58208C0.322025 5.981 0 5.1774 0 4.3289C0 3.4804 0.322025 2.6768 0.906993 2.07573C1.49382 1.47274 2.28106 1.13965 3.1134 1.13965C3.73194 1.13965 4.32611 1.32776 4.83525 1.67768L6.46797 1.22215e-07ZM3.1134 10.1036C2.60182 10.1036 2.13055 10.3026 1.77892 10.6718C1.42151 11.039 1.22198 11.5328 1.22198 12.057C1.22198 12.5782 1.41945 13.0648 1.77892 13.4422C2.13447 13.8076 2.60983 14.0104 3.1134 14.0104C3.62497 14.0104 4.09624 13.8114 4.44788 13.4422C4.80529 13.075 5.00482 12.5812 5.00482 12.057C5.00482 11.5358 4.80735 11.0492 4.4452 10.669C4.09624 10.3026 3.62497 10.1036 3.1134 10.1036ZM4.4452 5.72632C4.80529 5.35628 5.00482 4.86254 5.00482 4.3383C5.00482 3.80588 4.80896 3.31623 4.44788 2.95307C4.09232 2.58772 3.61697 2.38489 3.1134 2.38489C2.60182 2.38489 2.13055 2.58393 1.77892 2.95307C1.42151 3.32032 1.22198 3.81406 1.22198 4.3383C1.22198 4.85954 1.41945 5.34611 1.77892 5.72353C2.13447 6.08888 2.60983 6.29171 3.1134 6.29171C3.62497 6.29171 4.09624 6.09268 4.4452 5.72632Z" transform="translate(8.26562 4.00195)" fill="white"/>
</svg>
