<svg width="23" height="24" viewBox="0 0 23 24" fill="none" xmlns="http://www.w3.org/2000/svg">
<path d="M11.5 23C17.8513 23 23 17.8513 23 11.5C23 5.14873 17.8513 0 11.5 0C5.14873 0 0 5.14873 0 11.5C0 17.8513 5.14873 23 11.5 23Z" transform="translate(0 0.201172)" fill="#1A53F0"/>
<path d="M3.13105 6.67717C1.4039 6.67717 0.00380152 8.07859 0.00380152 9.80733C0.00380152 11.5361 1.40409 12.9375 3.13124 12.9375C4.85857 12.9375 6.25867 11.5361 6.25867 9.80733C6.25867 8.07859 4.85857 6.67717 3.13124 6.67717H3.13105ZM3.13105 11.9906C1.92699 11.9906 0.950852 11.0136 0.950852 9.80844C0.950852 8.60324 1.92699 7.62624 3.13105 7.62624C4.33529 7.62624 5.31144 8.60324 5.31144 9.80844C5.3094 11.0127 4.33437 11.9886 3.13105 11.9906ZM9.81007 6.85046e-07C8.08292 6.85046e-07 6.68263 1.40142 6.68263 3.13017C6.68263 4.85891 8.08292 6.26033 9.81007 6.26033C11.5374 6.26033 12.9375 4.85891 12.9375 3.13017C12.9375 1.40142 11.5374 6.85046e-07 9.81007 6.85046e-07ZM9.81007 5.31348C8.60601 5.31348 7.62987 4.33648 7.62987 3.13128C7.62987 1.92607 8.60601 0.949073 9.81007 0.949073C11.0143 0.949073 11.9904 1.92607 11.9904 3.13128C11.9884 4.33556 11.0134 5.31144 9.81007 5.31348ZM3.13105 6.85046e-07C1.64219 -0.00092398 0.35883 1.04857 0.0627258 2.50916C-0.233193 3.96957 0.540235 5.43664 1.9118 6.01659C3.28337 6.59635 4.87339 6.12847 5.71297 4.89775C6.55274 3.66702 6.40969 2.01465 5.37092 0.946854H6.25775V6.85046e-07H3.13105ZM5.31144 3.13017C5.31144 4.33537 4.33529 5.31237 3.13105 5.31237C1.92699 5.31237 0.950852 4.33537 0.950852 3.13017C0.950852 1.92496 1.92699 0.947964 3.13105 0.947964C4.33474 0.949444 5.31051 1.92533 5.31255 3.13017H5.31144Z" transform="translate(5.39062 5.95117)" fill="white"/>
</svg>
