<svg width="24" height="22" viewBox="0 0 24 22" fill="none" xmlns="http://www.w3.org/2000/svg">
<path d="M22.7693 18.313C22.6071 18.313 22.4618 18.3428 22.3365 18.3909C22.1981 18.4442 22.0746 18.516 21.9725 18.6076L19.7991 16.7285L21.4703 11.5589C21.474 11.5589 21.4885 11.5589 21.5059 11.5589C21.5095 11.5589 21.5186 11.5589 21.5297 11.5589C21.7482 11.5589 21.9453 11.4787 22.1187 11.3166C22.2856 11.1562 22.3698 10.9509 22.3698 10.7018C22.3698 10.4661 22.2855 10.2643 22.1187 10.0957C21.9452 9.93533 21.7488 9.85345 21.5297 9.85345C21.517 9.85345 21.5059 9.85345 21.5059 9.85345C21.4877 9.85345 21.4761 9.85345 21.4703 9.85345L20.0069 5.33328C20.1215 5.26615 20.2171 5.16636 20.2925 5.03877C20.3596 4.92412 20.3988 4.78525 20.4053 4.62315C20.4053 4.38744 20.3209 4.18558 20.1541 4.017C19.9856 3.8501 19.7837 3.76585 19.548 3.76585C19.4441 3.77129 19.3443 3.7896 19.2535 3.81935C19.1537 3.85491 19.0694 3.90789 19.0024 3.97501L15.1403 1.17806C15.1585 1.13053 15.1759 1.08298 15.1938 1.03074C15.1975 0.983204 15.1993 0.922618 15.1993 0.857308C15.1993 0.621594 15.1149 0.419712 14.9481 0.251158C14.7747 0.0842551 14.5782 0 14.3591 0C14.1513 0.0126991 13.9714 0.073643 13.8224 0.181676C13.6604 0.302862 13.5606 0.460756 13.5279 0.649556H8.84319C8.80165 0.47848 8.70242 0.324783 8.54868 0.19059C8.39248 0.0646871 8.21738 0 8.02916 0C7.78692 0 7.58326 0.0843458 7.42301 0.251158C7.2543 0.419693 7.17187 0.621649 7.17187 0.857308C7.17187 0.922074 7.17549 0.980846 7.19 1.03074C7.2027 1.08407 7.21377 1.13234 7.23155 1.17806L3.3695 3.97501C3.28713 3.90789 3.20712 3.85382 3.127 3.81935C3.02741 3.7896 2.92566 3.77183 2.8239 3.76585C2.58142 3.76585 2.37794 3.85021 2.21774 4.017C2.04884 4.18572 1.96666 4.38749 1.96666 4.62315C1.96666 4.78516 2.00348 4.92417 2.07913 5.03877C2.14626 5.16649 2.24367 5.26619 2.36489 5.33328H2.38122L0.917807 9.82743C0.904745 9.82743 0.896442 9.82743 0.891689 9.82743C0.874455 9.82743 0.861408 9.82743 0.857253 9.82743C0.614767 9.82743 0.411295 9.9118 0.251103 10.0786C0.0822404 10.2473 0 10.4485 0 10.6848C0 10.927 0.0822985 11.1307 0.251103 11.2909C0.411293 11.4596 0.614767 11.5421 0.857253 11.5421C0.857253 11.5421 0.861605 11.5421 0.874485 11.5421C0.885189 11.5421 0.894086 11.5421 0.900617 11.5421L2.38135 16.0796C2.2471 16.1556 2.14541 16.2548 2.07825 16.3741C2.00241 16.4953 1.96576 16.6359 1.96576 16.7897C1.96576 17.032 2.04795 17.2356 2.21686 17.3959C2.37705 17.5646 2.58053 17.647 2.82301 17.647C2.92479 17.647 3.02648 17.6289 3.12612 17.5937C3.2063 17.5639 3.28631 17.52 3.3686 17.4552L7.23068 20.2349C7.21254 20.2884 7.20092 20.343 7.18913 20.3911C7.17643 20.4444 7.171 20.5039 7.171 20.5554C7.171 20.7959 7.25353 20.999 7.42214 21.1616C7.58251 21.3285 7.7861 21.4128 8.02829 21.4128C8.21651 21.4128 8.39227 21.3498 8.54781 21.231C8.70165 21.1206 8.80134 20.9651 8.84232 20.7632H13.527C13.5568 20.9645 13.6587 21.1206 13.8215 21.231C13.9712 21.3499 14.1504 21.4128 14.3583 21.4128C14.5768 21.4128 14.7739 21.3284 14.9473 21.1616C15.1142 20.9996 15.1984 20.7958 15.1984 20.5554C15.1984 20.5021 15.1948 20.4473 15.193 20.3911C15.1748 20.3435 15.1574 20.2913 15.1395 20.2349L19.5471 17.0569L21.7032 18.9187C21.6439 19.0054 21.6016 19.1051 21.5731 19.2131C21.5376 19.3343 21.5256 19.4489 21.5316 19.551C21.5261 19.893 21.6462 20.1788 21.8955 20.417C22.1313 20.6574 22.424 20.7809 22.7701 20.7809C23.1038 20.7809 23.3936 20.6574 23.636 20.417C23.8718 20.1789 23.9935 19.8933 24 19.551C23.9946 19.2114 23.8723 18.9167 23.636 18.6678C23.3938 18.4321 23.1034 18.3127 22.7701 18.3127L22.7693 18.313ZM19.6953 5.71371L21.0721 9.99139C20.9723 10.0507 20.8945 10.1233 20.8382 10.2081C20.7734 10.2907 20.7277 10.3857 20.6998 10.4937H19.9897C19.9541 10.3448 19.8881 10.2164 19.7902 10.1125C19.6797 10.0109 19.5586 9.92848 19.4262 9.87029L19.6953 5.71371ZM19.2969 5.43642L19.0024 9.85271C18.9897 9.85271 18.9786 9.85271 18.9786 9.85271C18.9605 9.85815 18.9488 9.86542 18.943 9.87087L17.1852 6.52836C17.2696 6.46541 17.3432 6.37218 17.4019 6.2511C17.4495 6.14297 17.4732 6.02369 17.4797 5.89602C17.4797 5.89239 17.4761 5.87225 17.4743 5.83543C17.4616 5.81166 17.4562 5.78211 17.4689 5.74873L18.889 5.14255C18.9366 5.20731 18.9972 5.26609 19.0796 5.31598C19.1332 5.38074 19.205 5.41578 19.2874 5.41995L19.2969 5.43642ZM14.5083 9.87004C14.4956 9.87548 14.4785 9.87365 14.4477 9.86458C14.4121 9.86096 14.3829 9.85916 14.3609 9.85916C14.3194 9.85916 14.2784 9.86277 14.2398 9.86458C14.1982 9.87728 14.1554 9.88836 14.1097 9.88836L11.7716 5.81849C11.8132 5.78873 11.8495 5.7383 11.8845 5.68024C11.9142 5.63271 11.9451 5.57628 11.9795 5.52403L15.7637 6.00022C15.7673 6.1214 15.8052 6.22346 15.8676 6.30361C15.9151 6.40339 15.9888 6.48358 16.0754 6.54588L14.5083 9.87004ZM16.4566 6.73537C16.4748 6.73537 16.5042 6.73901 16.5433 6.74082C16.5615 6.75352 16.5849 6.75894 16.6212 6.74624C16.6509 6.75169 16.6818 6.74989 16.7162 6.74082C16.746 6.73719 16.781 6.72266 16.8291 6.70525L18.5869 10.0564C18.5109 10.1212 18.455 10.1881 18.4224 10.2559C18.3688 10.3319 18.3398 10.4097 18.3356 10.4898H15.1836C15.1481 10.4096 15.1123 10.3318 15.0797 10.2559C15.0322 10.1888 14.9734 10.1217 14.9062 10.0564L16.4566 6.73537ZM13.7549 10.0952C13.6956 10.1545 13.6533 10.214 13.6248 10.2769C13.5893 10.3416 13.5577 10.4135 13.5298 10.4936H8.84506C8.83236 10.4134 8.80352 10.3421 8.75835 10.2769C8.71081 10.2139 8.6651 10.1533 8.61992 10.0952L10.9753 6.0253C11.0051 6.0253 11.0359 6.02894 11.0704 6.03075C11.1001 6.04345 11.1399 6.0489 11.1916 6.0362C11.2331 6.04165 11.2694 6.03982 11.3044 6.03075C11.3341 6.02712 11.3692 6.0253 11.4172 6.0253L13.7549 10.0952ZM8.26492 9.88739C8.2114 9.88376 8.17166 9.87468 8.14372 9.86361C8.10817 9.85999 8.07007 9.85816 8.03088 9.85816C7.99532 9.85816 7.96612 9.8618 7.94417 9.86361C7.90861 9.87631 7.88121 9.88177 7.86634 9.86907L6.29903 6.54383C6.37922 6.48088 6.44798 6.4007 6.50685 6.30159C6.55438 6.2214 6.58703 6.11991 6.6108 5.9982L10.3949 5.49591C10.4247 5.57845 10.4555 5.63903 10.49 5.67759C10.5138 5.73691 10.5506 5.78388 10.6028 5.81599L8.26492 9.88739ZM7.48555 10.0608C7.40953 10.1142 7.3513 10.1755 7.31212 10.2425C7.2528 10.3245 7.22123 10.4094 7.21706 10.4937H4.08239C4.04792 10.42 4.0109 10.3445 3.97843 10.2686C3.9309 10.2015 3.87231 10.1367 3.80518 10.078L5.56301 6.73553C5.59276 6.73553 5.6236 6.73917 5.65807 6.74099C5.68782 6.75368 5.72284 6.75911 5.77092 6.74641C5.79468 6.75185 5.82443 6.75006 5.85763 6.74099C5.88139 6.73736 5.91114 6.73553 5.94434 6.73553L7.48555 10.0608ZM4.08246 10.9181H7.19111C7.21487 11.0179 7.25406 11.1022 7.3123 11.1693C7.35384 11.2453 7.40971 11.3059 7.48573 11.351L5.91842 14.6761C5.90572 14.6761 5.88868 14.6761 5.85784 14.6761C5.82228 14.6761 5.79306 14.6761 5.77111 14.6761C5.72358 14.6761 5.68676 14.6761 5.65828 14.6761C5.62272 14.6816 5.59114 14.6943 5.5632 14.6999L3.80538 11.3314C3.8725 11.2839 3.93092 11.2167 3.97864 11.1408C4.01129 11.0737 4.04793 10.9976 4.08258 10.9157L4.08246 10.9181ZM7.86656 11.5416C7.8847 11.5416 7.9081 11.5452 7.94439 11.547C7.96815 11.5651 7.99772 11.5708 8.0311 11.5524C8.07265 11.5651 8.11129 11.5579 8.15229 11.547C8.19384 11.5434 8.23012 11.5343 8.26514 11.5232L10.6031 15.5758C10.5498 15.6233 10.5122 15.6732 10.4903 15.7231C10.4547 15.7879 10.4231 15.8425 10.3952 15.8874L6.6111 15.4113C6.58734 15.3097 6.55178 15.2076 6.50716 15.1085C6.44783 15.0241 6.37944 14.9416 6.29935 14.8662L7.86656 11.5416ZM8.61991 11.3165C8.66744 11.269 8.7108 11.2037 8.75833 11.1348C8.80586 11.0719 8.83198 11.0006 8.84505 10.9181H13.5298C13.5334 11.0001 13.5653 11.0719 13.6165 11.1348C13.658 11.2043 13.7032 11.2667 13.7549 11.3165L11.4169 15.3691C11.3813 15.3746 11.3456 15.3727 11.3129 15.3637C11.2714 15.351 11.2309 15.3455 11.1918 15.3455C11.1384 15.3455 11.0985 15.351 11.0706 15.3637C11.035 15.3764 10.9969 15.3875 10.9577 15.3875V15.3693L8.61991 11.3165ZM14.11 11.5243C14.1575 11.537 14.1967 11.5481 14.2312 11.5481C14.2609 11.5663 14.2959 11.5719 14.344 11.5535C14.3738 11.5662 14.4135 11.559 14.448 11.5481C14.4717 11.5445 14.5015 11.5427 14.5347 11.5427H14.5109L16.0783 14.8679C15.9957 14.9439 15.9286 15.0259 15.8788 15.1101C15.8253 15.2099 15.7962 15.3114 15.7921 15.4129L11.9819 15.8891C11.9464 15.8416 11.919 15.7893 11.9041 15.7246C11.8686 15.677 11.8328 15.6248 11.8002 15.5772L14.11 11.5243ZM14.8893 11.3509C14.9522 11.3034 15.0105 11.2446 15.0627 11.1692C15.1102 11.1021 15.1494 11.0177 15.1839 10.9181H18.3359C18.3656 11.0001 18.3989 11.0761 18.4399 11.1431C18.4696 11.2191 18.5307 11.2773 18.6133 11.3165L16.8121 14.7024C16.7765 14.6897 16.745 14.6842 16.717 14.6786C16.6815 14.6786 16.6499 14.6786 16.622 14.6786C16.5864 14.6786 16.559 14.6786 16.5441 14.6786C16.5026 14.6786 16.4729 14.6786 16.4574 14.6786L14.8893 11.3509ZM14.9074 1.50526L18.7522 4.31087C18.734 4.35841 18.7224 4.40828 18.7166 4.45817C18.6985 4.52294 18.6928 4.57754 18.6928 4.62271C18.6874 4.65827 18.6892 4.68203 18.6983 4.69219C18.711 4.71596 18.7164 4.73974 18.7164 4.77003V4.74626L17.2876 5.37843C17.2051 5.28754 17.1102 5.20499 17.002 5.13618C16.8809 5.07323 16.7533 5.04112 16.6208 5.04112C16.5853 5.04112 16.5579 5.04112 16.543 5.04112C16.5015 5.04657 16.4717 5.05928 16.4563 5.0649H16.4744L14.8897 1.53186C14.8897 1.5373 14.8897 1.53551 14.8897 1.52644C14.8897 1.51374 14.8934 1.50828 14.9079 1.50828L14.9074 1.50526ZM14.0328 1.65255C14.0804 1.67632 14.1303 1.6941 14.189 1.6941C14.2366 1.7068 14.2865 1.71224 14.3452 1.71224C14.369 1.72494 14.3986 1.7177 14.432 1.70681C14.4501 1.70318 14.4735 1.70136 14.5098 1.70136L16.1031 5.23437C16.0271 5.27591 15.9712 5.32763 15.9386 5.39058C15.891 5.45534 15.8542 5.52246 15.8257 5.58947L12.0243 5.08716C12.0189 5.0135 12.0006 4.93749 11.9708 4.86213C11.9352 4.78848 11.8972 4.72372 11.8585 4.67154L14.0328 1.65255ZM8.84588 1.07248H13.5306C13.5342 1.1318 13.5543 1.18713 13.5912 1.23702C13.6209 1.30179 13.6541 1.35585 13.6951 1.40156L11.4783 4.38899C11.4368 4.38536 11.394 4.37631 11.3483 4.36524C11.2889 4.36161 11.2378 4.35979 11.1921 4.35979C11.1273 4.35979 11.0685 4.36343 11.0186 4.36524C10.9651 4.37794 10.917 4.395 10.8713 4.41858V4.39481L8.68052 1.40732C8.71027 1.35979 8.74999 1.30989 8.78446 1.25111C8.81422 1.20957 8.832 1.1537 8.84506 1.07768L8.84588 1.07248ZM8.0319 1.71323C8.07943 1.71323 8.13168 1.70961 8.19644 1.6951C8.24398 1.69147 8.29622 1.67695 8.34375 1.65355L10.5431 4.667C10.4838 4.72034 10.4416 4.78403 10.4131 4.85759C10.3775 4.93361 10.3596 5.00907 10.3525 5.08262L6.55102 5.58493C6.51546 5.51781 6.47973 5.4507 6.44707 5.38604C6.39356 5.32309 6.34548 5.27137 6.29976 5.22983L7.88441 1.69682C7.88804 1.69682 7.90818 1.70043 7.94501 1.70224C7.96878 1.72038 7.99852 1.72602 8.03172 1.7077L8.0319 1.71323ZM7.48625 1.50542C7.48625 1.50542 7.48625 1.51088 7.48625 1.52358C7.48625 1.53628 7.49169 1.54171 7.51002 1.52901L5.91672 5.062C5.88116 5.0493 5.85739 5.04384 5.84723 5.03822C5.82347 5.03822 5.7997 5.03822 5.76941 5.03822C5.62445 5.03822 5.49688 5.06797 5.38821 5.13328C5.26703 5.20276 5.16972 5.28476 5.10263 5.37552L3.65654 4.74338C3.66743 4.73975 3.67614 4.71961 3.68268 4.68278C3.68268 4.66464 3.68268 4.64125 3.68268 4.60497C3.67542 4.55744 3.66634 4.49866 3.65654 4.44043C3.64022 4.39289 3.62625 4.35189 3.62208 4.31035L7.48625 1.50542ZM3.49433 5.14236L4.94039 5.74851C4.92225 5.78406 4.91662 5.81328 4.91662 5.83523C4.91662 5.87079 4.91662 5.90001 4.91662 5.92196C4.91118 6.03897 4.93477 6.14934 4.99445 6.25088C5.04198 6.37206 5.11147 6.46523 5.21116 6.52817L3.4533 9.87065C3.4406 9.87065 3.4319 9.87065 3.42719 9.87065C3.40904 9.87065 3.40342 9.87065 3.40904 9.87065L3.09733 5.41976C3.17751 5.39599 3.25535 5.3568 3.33114 5.29856C3.39827 5.25103 3.4545 5.20116 3.49568 5.1431L3.49433 5.14236ZM2.69767 15.6981L1.30353 11.4203C1.38789 11.3728 1.46806 11.2968 1.53733 11.2036C1.59375 11.13 1.64128 11.0349 1.67593 10.918H2.42928C2.46847 11.0563 2.53758 11.1799 2.63709 11.282C2.72798 11.3925 2.84057 11.4744 2.97482 11.5242H2.99114L2.69767 15.6981ZM2.42923 10.4938H1.67586C1.66316 10.3922 1.62179 10.2901 1.55467 10.191C1.47231 10.1066 1.39449 10.033 1.32087 9.97426L2.69771 5.71385L2.99215 9.88764C2.84702 9.94697 2.72804 10.0284 2.63707 10.1299C2.53748 10.2404 2.46818 10.3615 2.42927 10.4938L2.42923 10.4938ZM3.09599 15.9924L3.40771 11.5416C3.40045 11.5416 3.40772 11.5416 3.42404 11.5416C3.42767 11.5416 3.43674 11.5416 3.45016 11.5416L5.208 14.8841C5.10822 14.9666 5.03693 15.0591 4.99128 15.1613C4.93196 15.2783 4.90692 15.397 4.91345 15.5164C4.91345 15.552 4.91345 15.5757 4.91345 15.5859C4.91345 15.6096 4.9189 15.6334 4.93722 15.6637L3.49112 16.2699C3.43288 16.2027 3.37428 16.144 3.31786 16.0964C3.25291 16.0667 3.17708 16.027 3.09271 15.9925L3.09599 15.9924ZM7.48625 19.9065L3.62421 17.1269C3.62784 17.0793 3.64055 17.0318 3.65869 16.9796C3.66957 16.932 3.67828 16.8714 3.68481 16.8061C3.68481 16.788 3.68481 16.7646 3.68481 16.7283C3.67755 16.7045 3.66849 16.6748 3.65869 16.6416V16.6653L5.0875 16.0332C5.16116 16.133 5.25621 16.2131 5.3731 16.2754C5.48775 16.3402 5.61535 16.3705 5.75428 16.3705C5.77242 16.3705 5.80181 16.3705 5.84099 16.3705C5.85913 16.3705 5.88254 16.3651 5.91882 16.3467L7.51212 19.8797C7.49398 19.8978 7.48836 19.9035 7.48836 19.9035L7.48625 19.9065ZM8.34356 19.7592C8.29603 19.7555 8.24614 19.741 8.19625 19.7176C8.13149 19.714 8.07741 19.7049 8.0317 19.6995C7.99614 19.6995 7.96693 19.7031 7.94498 19.7049C7.90942 19.7176 7.88203 19.7231 7.86715 19.7104H7.8853L6.30065 16.1774C6.34818 16.1359 6.39571 16.0865 6.44796 16.0212C6.47771 15.9677 6.51744 15.8977 6.5519 15.8223H6.57005L10.3542 16.2985C10.3578 16.3852 10.3779 16.4654 10.4148 16.5324C10.4445 16.6084 10.4861 16.6774 10.5448 16.7402L10.1636 17.2426L8.34356 19.7592ZM13.5305 20.3393H8.84575C8.83305 20.2917 8.816 20.233 8.78516 20.1658C8.7496 20.1011 8.71387 20.0512 8.68121 20.0096L10.872 16.9789C10.9195 17.0144 10.9671 17.0322 11.0193 17.0322C11.0669 17.0449 11.1274 17.0504 11.1927 17.0377C11.2403 17.0431 11.2925 17.0413 11.3573 17.0322C11.4048 17.0322 11.4571 17.0141 11.5218 16.9789H11.5037L13.6945 20.0096C13.653 20.0726 13.6185 20.1267 13.5905 20.174C13.555 20.237 13.537 20.291 13.53 20.3386L13.5305 20.3393ZM14.5089 19.7158C14.4734 19.7212 14.446 19.7194 14.4311 19.7103C14.3956 19.7067 14.3664 19.7049 14.3444 19.7049C14.2851 19.7103 14.2339 19.7176 14.1882 19.723C14.1289 19.7468 14.0777 19.7646 14.032 19.7646L11.8325 16.7511C11.8801 16.6882 11.93 16.6193 11.971 16.5433C12.0007 16.4762 12.0185 16.396 12.0245 16.3094L15.8259 15.8332C15.8556 15.9092 15.8906 15.974 15.9387 16.0238C15.9802 16.0886 16.0254 16.1425 16.0771 16.1884L14.5531 19.5915L14.5089 19.7158ZM14.9074 19.9064C14.8947 19.9064 14.8892 19.9064 14.8892 19.9064C14.8892 19.9064 14.8892 19.9009 14.8892 19.8826L14.9308 19.7787L16.4721 16.3496C16.4758 16.3677 16.5019 16.3734 16.5416 16.3734C16.5598 16.3734 16.5832 16.3734 16.6194 16.3734C16.7511 16.3734 16.8795 16.3436 17.0006 16.2866C17.1087 16.2391 17.2043 16.1631 17.2862 16.0527V16.0346L19.1306 16.8313L14.9074 19.9064ZM17.4619 15.6633C17.4565 15.6335 17.4583 15.61 17.4673 15.5855C17.471 15.5728 17.4728 15.5499 17.4728 15.516C17.4673 15.3901 17.443 15.2737 17.3949 15.1698C17.3356 15.0683 17.2631 14.9709 17.1782 14.8842L18.962 11.5245C18.9656 11.5245 18.9747 11.5245 18.9858 11.5245C18.9894 11.5245 18.9912 11.5245 18.9912 11.5245L19.3118 16.4776L17.4619 15.6633ZM19.4275 11.4982C19.5594 11.4506 19.6787 11.377 19.7826 11.2731C19.867 11.1823 19.9299 11.063 19.9643 10.9181H20.7003C20.7301 11.0351 20.774 11.13 20.8388 11.2037C20.8921 11.2969 20.973 11.3706 21.0727 11.4204L19.6959 15.6981L19.4275 11.4982Z" transform="translate(0 0.443359)" fill="#2E9AD0"/>
</svg>
