<svg width="20" height="24" viewBox="0 0 20 24" fill="none" xmlns="http://www.w3.org/2000/svg">
<path fill-rule="evenodd" clip-rule="evenodd" d="M14.2996 11.8268C14.0392 11.1005 13.5928 10.4589 13.01 9.96263L12.7869 9.78105L12.7745 9.76895C12.7001 9.70842 12.6257 9.66 12.5513 9.61158L12.5389 9.59947C12.4645 9.55105 12.3901 9.50263 12.3033 9.45421C12.2909 9.45421 12.2909 9.44211 12.2785 9.44211C12.2041 9.39368 12.1173 9.35737 12.0429 9.32105C12.0305 9.32105 12.0305 9.30895 12.0181 9.30895C11.9437 9.27263 11.8569 9.23632 11.7701 9.2C11.7577 9.2 11.7577 9.18789 11.7453 9.18789C11.6709 9.16368 11.5965 9.12737 11.5221 9.10316C11.3237 9.03053 11.113 8.97 10.9022 8.93368C10.741 9.23632 10.5178 9.50263 10.2698 9.73263C10.6542 9.75684 11.0262 9.85368 11.3609 9.98684C11.5593 10.0716 11.7577 10.1684 11.9313 10.2774C11.9437 10.2774 11.9561 10.2895 11.9561 10.2895C12.0057 10.3137 12.0429 10.35 12.0925 10.3863C12.1173 10.3984 12.1297 10.4105 12.1545 10.4347C12.1917 10.4589 12.2413 10.4953 12.2785 10.5316C12.3033 10.5558 12.3281 10.5679 12.3529 10.5921C12.3901 10.6284 12.4273 10.6526 12.4645 10.6889L12.5389 10.7616L12.6381 10.8584L12.7125 10.9311C12.7373 10.9674 12.7745 11.0037 12.7992 11.0279C12.824 11.0521 12.8488 11.0884 12.8736 11.1126L12.948 11.2216C12.9728 11.2579 12.9976 11.2821 13.01 11.3184L13.0844 11.4274C13.1092 11.4637 13.1216 11.5 13.1464 11.5242C13.1712 11.5605 13.1836 11.5968 13.2084 11.6332C13.2332 11.6695 13.2456 11.7058 13.2704 11.7421C13.2828 11.7784 13.3076 11.8147 13.32 11.8511C13.3448 11.8995 13.3572 11.9479 13.382 11.9842C13.4812 12.2263 13.5556 12.4805 13.5928 12.7589L13.7044 13.1826C13.754 13.3642 14.2004 14.9137 15.2419 15.4342C16.4322 16.0395 18.0069 16.79 18.6269 17.0805L10.4558 21.85V18.5816C10.4558 18.0611 11.5097 17.4558 11.9933 17.25L12.0181 17.2379C12.1173 17.1895 12.2165 17.1411 12.3157 17.0805L12.3529 17.0563C12.5637 16.9353 12.7621 16.79 12.948 16.6326C12.9604 16.6205 12.9852 16.6084 12.9976 16.5842C13.0224 16.5721 13.0348 16.5479 13.0596 16.5358C13.1216 16.4874 13.1712 16.4268 13.2332 16.3784L13.258 16.3542C13.32 16.2937 13.382 16.2332 13.4316 16.1605C13.444 16.1363 13.4688 16.1242 13.4812 16.1C13.5308 16.0516 13.568 15.9911 13.6176 15.9305C13.63 15.9184 13.6424 15.8942 13.6548 15.8821L13.8036 15.6642C13.8036 15.6521 13.816 15.6521 13.816 15.64C13.878 15.5432 13.94 15.4342 14.002 15.3374C13.754 15.0468 13.568 14.7321 13.4192 14.4416C13.3572 14.6232 13.2704 14.8047 13.1836 14.9621C13.1464 15.0347 13.0968 15.1074 13.0596 15.18C13.0472 15.1921 13.0472 15.2042 13.0348 15.2042C12.9976 15.2647 12.948 15.3253 12.9108 15.3737C12.8984 15.3858 12.886 15.41 12.8736 15.4221C12.8364 15.4826 12.7869 15.5311 12.7373 15.5795C12.7249 15.5916 12.7249 15.6037 12.7125 15.6037C12.4149 15.9305 12.0553 16.2089 11.6461 16.4026L11.5717 16.4389C11.3609 16.5237 9.53825 17.3347 9.53825 18.5574V21.8258L1.35475 17.0684C1.88792 16.7537 3.42542 15.8579 4.69014 15.4705C5.18611 15.3132 6.24005 15.9668 6.83521 16.4389L6.87241 16.4753C6.94681 16.5479 7.0336 16.6205 7.1204 16.6811L7.14519 16.7053C7.33118 16.8505 7.52957 16.9958 7.75276 17.1047L7.90155 17.1774C7.91395 17.1774 7.92635 17.1895 7.92635 17.1895C8.06274 17.2621 8.19913 17.3226 8.34792 17.3832C8.37272 17.3953 8.38512 17.3953 8.40992 17.4074C8.42232 17.4074 8.43472 17.4195 8.45951 17.4195C8.6703 17.4921 8.88109 17.5526 9.09188 17.6011C9.25307 17.2984 9.48865 17.0321 9.73664 16.8021C9.37706 16.7779 9.04228 16.7053 8.7199 16.5842C8.7075 16.5721 8.6827 16.5721 8.6703 16.56C8.6331 16.5479 8.59591 16.5358 8.55871 16.5116C8.54631 16.4995 8.52151 16.4995 8.50911 16.4874C8.47191 16.4753 8.43472 16.4511 8.40992 16.4389C8.16193 16.3179 7.93875 16.1847 7.72796 16.0153L7.40558 15.7247C7.39318 15.7126 6.9964 15.3616 6.43844 15.0468C5.63249 14.5989 4.95053 14.4537 4.42976 14.6111C3.35103 14.95 2.1235 15.5916 1.37955 16.0153L9.55065 1.68263V7.96526C9.55065 8.18316 9.21587 8.76421 8.08754 9.26053L8.01314 9.29684C7.90155 9.34526 7.80235 9.40579 7.69076 9.46632L7.66596 9.47842C7.45518 9.59947 7.25679 9.74474 7.0584 9.90211C6.93441 9.99895 6.82281 10.1079 6.72362 10.2168L6.71122 10.2289C6.59963 10.3379 6.50043 10.4468 6.41364 10.5679L6.40124 10.58C6.35164 10.6405 6.31445 10.7011 6.26485 10.7616C6.26485 10.7737 6.25245 10.7737 6.25245 10.7858C6.21525 10.8463 6.17805 10.8947 6.14086 10.9553C6.14086 10.9674 6.12846 10.9674 6.12846 10.9795L6.01686 11.1611C6.00446 11.1732 6.00446 11.1853 5.99207 11.2095C5.95487 11.27 5.93007 11.3305 5.90527 11.3789C5.90527 11.3911 5.89287 11.4032 5.89287 11.4032C5.86807 11.4637 5.84327 11.5121 5.81848 11.5726C5.80608 11.5968 5.80608 11.6089 5.79368 11.6332L5.71928 11.8147C5.70688 11.8389 5.70688 11.8511 5.69448 11.8753C5.68208 11.9237 5.66968 11.96 5.64489 12.0084C5.63249 12.0326 5.63249 12.0568 5.62009 12.0811C5.60769 12.1416 5.58289 12.2021 5.57049 12.2505C5.55809 12.2747 5.55809 12.3111 5.54569 12.3353C5.53329 12.3716 5.53329 12.42 5.52089 12.4563C5.50849 12.4926 5.50849 12.5289 5.4961 12.5653C5.4837 12.6137 5.4837 12.6621 5.4713 12.7105C5.4713 12.7468 5.4589 12.7711 5.4589 12.8074C5.4589 12.8558 5.4465 12.8921 5.4465 12.9405C5.4465 12.9889 5.4465 13.0253 5.4341 13.0737V13.2553C5.4341 13.4732 5.4465 13.7032 5.4837 13.9089C5.80608 13.9816 6.14086 14.1147 6.50043 14.2842C6.40124 13.9695 6.35164 13.6426 6.33924 13.3037V13.2432C6.33924 13.1584 6.33924 13.0858 6.35164 13.0011V12.9405C6.35164 12.8679 6.36404 12.8074 6.37644 12.7347V12.7105C6.38884 12.6379 6.40124 12.5653 6.41364 12.4805C6.41364 12.4563 6.42604 12.4442 6.42604 12.42C6.43844 12.3595 6.46324 12.2989 6.47564 12.2384C6.47564 12.2263 6.48804 12.2142 6.48804 12.2021L6.56243 11.9842C6.57483 11.9721 6.57483 11.9479 6.58723 11.9358C6.61203 11.8753 6.63683 11.8147 6.66162 11.7663C6.67402 11.7542 6.67402 11.7421 6.68642 11.7179C6.72362 11.6453 6.74842 11.5847 6.79802 11.5242C6.81042 11.5121 6.81042 11.5 6.82281 11.4879C6.86001 11.4274 6.88481 11.3789 6.92201 11.3184C6.93441 11.3063 6.93441 11.2942 6.94681 11.2821C6.984 11.2216 7.0336 11.1611 7.0832 11.1005C7.0832 11.1005 7.0832 11.0884 7.0956 11.0884C7.1452 11.0279 7.18239 10.9795 7.23199 10.9189C7.24439 10.9068 7.24439 10.8947 7.25679 10.8826C7.47997 10.6405 7.72796 10.4347 8.01314 10.2532L8.39752 10.0716C8.60831 9.98684 10.4186 9.15158 10.4186 7.92895V1.68263L18.6641 16.1363C17.9325 15.7853 16.6306 15.1558 15.6263 14.6474C15.0435 14.3568 14.6591 13.3279 14.5475 12.9526L14.436 12.5168C14.436 12.2868 14.374 12.0568 14.2996 11.8268ZM19.8792 16.3784L10.7906 0.46C10.6294 0.169474 10.3318 0 9.99702 0C9.66224 0 9.36466 0.169474 9.20347 0.46L0.114824 16.3784C-0.120761 16.79 0.0156305 17.3226 0.437205 17.5647L9.53825 22.8789C9.68704 22.9637 9.84823 23 10.0094 23C10.1706 23 10.3318 22.9637 10.4806 22.8789L19.5692 17.5768C19.9784 17.3226 20.1272 16.79 19.8792 16.3784Z" transform="translate(0 0.201172)" fill="#5F2652"/>
</svg>
