<svg width="24" height="24" viewBox="0 0 24 24" fill="none" xmlns="http://www.w3.org/2000/svg">
<path d="M9.41482 5.79748V9.27296H5.93933C5.25195 9.27296 4.58 9.06913 4.00846 8.68724C3.43692 8.30535 2.99145 7.76255 2.7284 7.12749C2.46535 6.49242 2.39653 5.79362 2.53063 5.11944C2.66473 4.44526 2.99574 3.82599 3.48179 3.33994C3.96785 2.85388 4.58712 2.52287 5.2613 2.38877C5.93548 2.25467 6.63428 2.32349 7.26934 2.58655C7.90441 2.8496 8.4472 3.29506 8.82909 3.8666C9.21099 4.43814 9.41482 5.11009 9.41482 5.79748ZM5.98351 0.00308727C5.22155 -0.021795 4.46218 0.103928 3.7489 0.373051C3.03562 0.642175 2.38245 1.04941 1.82684 1.57141C1.27123 2.09342 0.824089 2.71994 0.511043 3.41506C0.197997 4.11019 0.0252013 4.86025 0.00255684 5.62228C-0.0200877 6.3843 0.107864 7.14331 0.379081 7.85579C0.650298 8.56828 1.05945 9.22024 1.58308 9.77432C2.10672 10.3284 2.73455 10.7737 3.43059 11.0847C4.12663 11.3957 4.8772 11.5663 5.63929 11.5867C5.73969 11.5867 5.84008 11.5901 5.94048 11.5867H11.7337V5.86689C11.7337 2.6731 9.17903 0.0260351 5.98523 0.00193962" transform="translate(6.47852 5.83301)" fill="#20EE82"/>
<path d="M19.7773 3.39284C15.8136 -0.570871 9.6928 -1.06139 5.19383 1.92014C5.3242 2.06414 5.43599 2.22392 5.52658 2.39574C9.79665 -0.421708 15.6128 0.0470059 19.3677 3.80246C23.6584 8.09317 23.6584 15.0757 19.3677 19.3664C15.077 23.6571 8.09447 23.6571 3.80375 19.3664C0.0488757 15.6115 -0.420413 9.79535 2.39646 5.52586C2.2245 5.43527 2.0647 5.32327 1.92086 5.19254C-1.06239 9.69093 -0.570149 15.8123 3.39356 19.776C7.91777 24.3003 15.2525 24.3003 19.7768 19.776C24.301 15.2518 24.301 7.91705 19.7768 3.39284" transform="translate(0.830078 0.0458984)" fill="#7F8C8D"/>
<path d="M0.339461 0.339058C0.501476 0.177124 0.707867 0.0668625 0.93254 0.0222153C1.15721 -0.0224319 1.39008 0.000539656 1.6017 0.0882257C1.81332 0.175912 1.99419 0.324375 2.12144 0.514844C2.24869 0.705314 2.31661 0.929238 2.31661 1.1583C2.31661 1.38737 2.24869 1.61129 2.12144 1.80176C1.99419 1.99223 1.81332 2.1407 1.6017 2.22838C1.39008 2.31607 1.15721 2.33904 0.93254 2.29439C0.707867 2.24975 0.501476 2.13948 0.339461 1.97755C0.231842 1.86998 0.146471 1.74227 0.088225 1.6017C0.0299791 1.46113 0 1.31046 0 1.1583C0 1.00615 0.0299791 0.855478 0.088225 0.714909C0.146471 0.57434 0.231842 0.446624 0.339461 0.339058Z" transform="translate(3.15039 2.36328)" fill="#20EE82"/>
</svg>
