<svg width="23" height="24" viewBox="0 0 23 24" fill="none" xmlns="http://www.w3.org/2000/svg">
<path d="M11.5 23C17.8513 23 23 17.8513 23 11.5C23 5.14873 17.8513 0 11.5 0C5.14873 0 0 5.14873 0 11.5C0 17.8513 5.14873 23 11.5 23Z" transform="translate(0 0.201172)" fill="#5B6DEE"/>
<path d="M3.80961 5.17672C3.40863 5.17448 3.0083 5.20893 2.61361 5.27965C2.93848 2.27493 5.44261 -0.000229814 8.42387 1.85894e-07C10.2493 1.85894e-07 11.5 0.89378 11.5 2.74436C11.5 4.59494 9.99879 5.48872 7.8085 5.48872C6.19183 5.48861 5.42651 5.17672 3.80961 5.17672ZM3.6915 6.27267C1.50133 6.27267 0 7.16645 0 9.01703C0 10.8676 1.25074 11.7614 3.07613 11.7614C6.05774 11.7614 8.56164 9.48646 8.88639 6.48174C8.4917 6.55247 8.09137 6.58692 7.69039 6.58467C6.07349 6.58455 5.30817 6.27267 3.6915 6.27267Z" transform="translate(5.75 5.82062)" fill="white"/>
</svg>
