<svg width="22" height="25" viewBox="0 0 22 25" fill="none" xmlns="http://www.w3.org/2000/svg">
<path d="M21.6431 7.22368C21.6234 8.00365 21.2919 8.5849 20.6523 8.97666C20.5344 9.04883 20.4934 9.12217 20.4937 9.25963C20.4977 11.3874 20.4975 13.5152 20.4943 15.6425C20.4941 15.7703 20.5259 15.8474 20.6407 15.9153C21.3809 16.3518 21.7553 17.1577 21.6224 18.0046C21.4949 18.8163 20.8597 19.4832 20.037 19.6428C19.5599 19.7356 19.0978 19.6616 18.6797 19.3996C18.5523 19.3199 18.4625 19.3338 18.3431 19.4043C16.5523 20.4638 14.7595 21.5206 12.9648 22.5735C12.8421 22.6454 12.796 22.7249 12.7963 22.871C12.7982 23.8948 12.0246 24.7858 11.0582 24.885C10.0291 24.9909 9.11915 24.3307 8.89686 23.3101C8.86273 23.1533 8.85123 22.9896 8.84767 22.8288C8.84515 22.7202 8.81555 22.6534 8.72092 22.5973C6.90127 21.5284 5.08318 20.4567 3.26586 19.3832C3.16742 19.3247 3.09005 19.3245 2.99089 19.3856C1.80352 20.1157 0.289865 19.4158 0.0381056 18.0519C-0.1209 17.1904 0.222578 16.3845 0.977403 15.9309C1.09679 15.859 1.15069 15.7865 1.15044 15.6375C1.14507 13.5097 1.14585 11.3821 1.14908 9.25448C1.14921 9.12653 1.1167 9.05107 1.00216 8.98313C0.244038 8.5334 -0.112368 7.75211 0.033193 6.87475C0.177656 6.00328 0.837594 5.364 1.69623 5.23922C2.1565 5.17234 2.60023 5.25797 2.99852 5.51769C3.09102 5.5781 3.15973 5.57625 3.2539 5.5208C5.06586 4.44974 6.8793 3.38185 8.69416 2.31627C8.80385 2.25184 8.84664 2.17776 8.84696 2.04572C8.85007 0.873779 9.75646 -0.0231152 10.9053 0.000454251C11.8007 0.0187421 12.6383 0.773625 12.7654 1.67613C12.7771 1.75912 12.7952 1.81015 12.7952 1.9245C12.7952 2.17466 12.8855 2.28075 13.0762 2.39206C14.8372 3.4212 16.5931 4.45852 18.3481 5.49762C18.4686 5.56906 18.5563 5.57216 18.6817 5.49927C19.8737 4.80473 21.319 5.47036 21.6091 6.84445C21.6362 6.9724 21.6336 7.10688 21.6431 7.22368ZM6.10314 14.5232C6.08517 14.5387 6.07302 14.5523 6.05796 14.5608C5.07019 15.1437 4.08299 15.7282 3.0916 16.3044C3.03679 16.336 2.9302 16.3294 2.87468 16.295C2.61258 16.1333 2.33374 16.0261 2.02833 16.0177C1.01237 15.9913 0.394446 16.839 0.359866 17.5753C0.319662 18.4377 0.958594 19.3212 1.99187 19.3132C2.89808 19.3065 3.58762 18.5643 3.57863 17.6384C3.57715 17.4729 3.62472 17.3793 3.76692 17.2969C4.81965 16.6845 5.86825 16.0648 6.91588 15.4436C7.0171 15.3833 7.09855 15.3735 7.20875 15.4264C7.86197 15.74 8.53768 15.7932 9.23407 15.5921C9.30323 15.5722 9.39515 15.5924 9.46444 15.6225C9.6692 15.7116 9.86473 15.8246 10.0709 15.9095C10.1884 15.9581 10.2281 16.0236 10.2279 16.1511C10.2243 17.8282 10.2244 19.5052 10.2275 21.1822C10.2277 21.3004 10.1911 21.3677 10.0855 21.4194C9.53211 21.6918 9.11469 22.3946 9.22858 23.1465C9.36082 24.0198 10.2394 24.6795 11.0868 24.5101C11.8337 24.3609 12.3243 23.8404 12.4294 23.0391C12.5006 22.4958 12.2446 21.7783 11.5604 21.4192C11.4677 21.3708 11.4165 21.3178 11.4168 21.2012C11.4203 19.5722 11.4205 17.9434 11.4168 16.3146C11.4167 16.1698 11.4819 16.1401 11.6059 16.1178C11.9337 16.0589 12.2621 15.9943 12.5823 15.9024C12.7271 15.8611 12.8418 15.855 12.9821 15.9167C13.6842 16.2254 14.368 16.1725 15.0218 15.7695C15.1152 15.7122 15.1821 15.7096 15.276 15.7655C16.1397 16.2792 17.0052 16.7908 17.8743 17.295C18.0148 17.3762 18.0693 17.4662 18.065 17.6347C18.04 18.6093 18.8719 19.4055 19.8422 19.3C20.7946 19.1966 21.4694 18.2601 21.2484 17.3132C20.9836 16.1784 19.7803 15.6666 18.8083 16.2798C18.7058 16.3445 18.6318 16.3619 18.5226 16.2967C17.7 15.8057 16.8756 15.3185 16.0477 14.837C15.9253 14.7662 15.909 14.7001 15.9479 14.5661C16.1976 13.7067 16.028 12.9425 15.4256 12.2842C15.3079 12.1556 14.7556 11.2545 14.6785 11.0884C14.6176 10.957 14.6434 10.8868 14.7661 10.815C16.0212 10.0808 17.2747 9.34295 18.5258 8.60166C18.6267 8.54218 18.695 8.54106 18.7938 8.60886C19.1465 8.85076 19.5418 8.92715 19.9566 8.85301C20.764 8.70855 21.3493 7.96225 21.2773 7.08133C21.1991 6.12562 20.2812 5.41127 19.3646 5.61844C18.5603 5.80033 18.0549 6.44252 18.0642 7.28666C18.0655 7.43059 18.0264 7.51265 17.9009 7.58587C16.6298 8.3286 15.362 9.07642 14.0964 9.82886C13.9822 9.89653 13.9199 9.8826 13.8281 9.79222C13.2317 9.20543 12.5143 8.87585 11.6956 8.7714C11.4194 8.73589 11.4193 8.73747 11.4193 8.44619C11.4192 6.91945 11.4229 5.39272 11.4148 3.86611C11.4138 3.653 11.4625 3.52954 11.6579 3.41486C12.3587 3.00362 12.6252 2.11808 12.3045 1.36319C11.9811 0.601641 11.1551 0.194754 10.3803 0.435796C9.67515 0.655052 9.28216 1.16401 9.21287 1.90443C9.15967 2.47584 9.4243 3.11064 10.0628 3.46695C10.1608 3.52162 10.2293 3.56975 10.2288 3.7072C10.2234 5.39041 10.2238 7.07321 10.2279 8.75642C10.2282 8.88985 10.1686 8.93501 10.0621 8.99007C9.74328 9.15426 9.40128 9.29779 9.13072 9.52642C8.81852 9.78965 8.52669 9.94176 8.09201 9.94176C8.04961 9.94037 8.02239 9.94466 7.97825 9.94361C7.8705 9.94123 7.7495 9.93668 7.66146 9.88524C6.37927 9.13842 5.10406 8.37918 3.82025 7.63479C3.63687 7.52863 3.54832 7.41487 3.57896 7.19892C3.59111 7.11289 3.56519 7.02086 3.55149 6.93219C3.42616 6.12581 2.65401 5.45121 1.72195 5.60775C0.807668 5.76138 0.227232 6.60651 0.377964 7.51107C0.570387 8.66637 1.86105 9.25118 2.83493 8.61929C2.94481 8.54792 3.02082 8.54231 3.13335 8.60946C4.09851 9.18437 5.06754 9.75248 6.03527 10.3229C6.20107 10.4207 6.36641 10.5194 6.53123 10.6171C5.41916 11.8197 5.29435 13.1121 6.10314 14.5232Z" fill="#2683FF"/>
<path d="M2.18943 1.04603C2.44384 1.06914 2.57053 0.981592 2.75636 0.805316C3.55888 0.043434 4.50574 -0.192459 5.54523 0.160225C6.56726 0.506901 7.20095 1.24871 7.41096 2.337C7.45194 2.55018 7.53403 2.67826 7.72044 2.78674C8.25324 3.09671 8.56026 3.76741 8.45477 4.32602C8.31813 5.04954 7.85385 5.55103 7.19721 5.65726C6.84752 5.71404 6.5003 5.67344 6.1925 5.4798C6.05463 5.39305 5.94546 5.40255 5.80306 5.46349C4.88871 5.85605 4.00345 5.78944 3.16208 5.24886C3.03287 5.16574 2.92473 5.15927 2.78486 5.20607C1.5991 5.60161 0.36584 4.91446 0.0646981 3.70654C-0.280267 2.32182 0.80136 0.98278 2.18943 1.04603Z" transform="translate(6.58984 9.58984)" fill="#2683FF"/>
<path d="M-3.60401e-07 0.467036C-0.000129633 0.196217 0.190613 -0.000789387 0.45168 2.86448e-06C0.703051 0.0010592 0.916999 0.213051 0.919584 0.463931C0.922299 0.705303 0.693614 0.938689 0.455234 0.939085C0.200243 0.939151 0.000193549 0.73178 -3.60401e-07 0.467036Z" transform="translate(19.2227 17.2012)" fill="#2683FF"/>
<path d="M1.55919e-06 0.465118C0.00103574 0.202685 0.201216 0.000264398 0.46015 3.14567e-07C0.719278 -0.000131727 0.918165 0.20176 0.91907 0.46525C0.919845 0.71778 0.703958 0.940997 0.460925 0.938026C0.21382 0.935517 -0.000838715 0.714941 1.55919e-06 0.465118Z" transform="translate(10.3613 1.55078)" fill="#2683FF"/>
<path d="M0.918879 0.469145C0.917909 0.733229 0.71592 0.941196 0.462351 0.939149C0.222679 0.93697 0.00104021 0.708472 6.02291e-06 0.461883C-0.00135134 0.215691 0.21796 4.83552e-07 0.46959 4.83552e-07C0.730334 0.000132525 0.919913 0.198063 0.918879 0.469145Z" transform="translate(1.50195 17.2012)" fill="#2683FF"/>
<path d="M0.465155 1.17031e-05C0.723766 0.00179427 0.920325 0.202827 0.918968 0.464336C0.917481 0.724921 0.717885 0.921071 0.455849 0.919552C0.195881 0.918034 -0.00287651 0.715414 3.2132e-05 0.454962C0.00307005 0.195895 0.205511 -0.00177086 0.465155 1.17031e-05Z" transform="translate(10.3613 22.4229)" fill="#2683FF"/>
<path d="M0.474962 0.919012C0.212861 0.921455 0.00789885 0.72643 0.000207103 0.467628C-0.00748464 0.21556 0.199805 0.00396248 0.458286 6.72414e-05C0.72795 -0.00402606 0.915461 0.179644 0.919274 0.45132C0.923217 0.724185 0.740295 0.916702 0.474962 0.919012Z" transform="translate(1.50195 6.77246)" fill="#2683FF"/>
<path d="M0.446083 0.919459C0.181138 0.917478 -0.00249456 0.724763 2.6266e-05 0.451766C0.00280564 0.180816 0.190769 -0.00351481 0.460561 5.03207e-05C0.719107 0.00368147 0.925038 0.213431 0.918962 0.466819C0.912692 0.723707 0.706439 0.921242 0.446083 0.919459Z" transform="translate(19.2227 6.77246)" fill="#2683FF"/>
</svg>
