<svg width="23" height="23" viewBox="0 0 23 23" fill="none" xmlns="http://www.w3.org/2000/svg">
<path d="M19.1187 6.08615H14.6266V0L9.63125 4.91846L4.63594 0V6.08615H0.14375H0C2.0125 9.23538 5.57031 11.3585 9.63125 11.3585C13.6922 11.3585 17.25 9.27077 19.2625 6.08615H19.1187Z" transform="translate(1.76172 11.524)" fill="#4C4C4C"/>
<path d="M4.025 14.8262V5.48462L11.3922 12.7385L18.7594 5.48462V14.8262H22.1734C22.5687 13.6938 22.7844 12.4908 22.7844 11.2169C22.7844 5.02462 17.6812 0 11.3922 0C5.10313 0 0 5.02462 0 11.2169C0 12.4908 0.215625 13.6938 0.610937 14.8262H4.025Z" transform="translate(0 0.449097)" fill="#FF6B01"/>
</svg>
