<svg width="24" height="24" viewBox="0 0 24 24" fill="none" xmlns="http://www.w3.org/2000/svg">
<path d="M11.5507 22.746C17.93 22.746 23.1014 17.6541 23.1014 11.373C23.1014 5.09186 17.93 0 11.5507 0C5.17142 0 0 5.09186 0 11.373C0 17.6541 5.17142 22.746 11.5507 22.746Z" transform="translate(0.109375 0.452179)" fill="#1276A7"/>
<path d="M10.497 7.82418C10.1326 7.71655 9.76822 7.68067 9.44029 7.68067C9.11235 7.71655 8.74797 7.57304 8.56579 7.28603L8.45647 7.14252C8.23785 6.81963 8.23785 6.42498 8.45647 6.10209L8.56579 5.9227C8.74797 5.67156 9.03947 5.52806 9.36741 5.52806C9.76822 5.52806 10.169 5.4563 10.5698 5.24104C11.5537 4.73876 12.2095 3.77009 12.1731 2.69378C12.1367 1.15107 10.8249 -0.068743 9.22166 0.00301084C7.87347 0.0747647 6.74391 1.15107 6.59816 2.47852C6.52529 3.19606 6.74391 3.84184 7.10829 4.38C7.32691 4.70289 7.32691 5.13341 7.10829 5.4563L7.07185 5.49218C6.88966 5.74332 6.59816 5.88683 6.30666 5.88683H6.12448C5.7601 5.88683 5.43216 5.67156 5.28641 5.34867C4.81272 4.41587 3.82891 3.80596 2.69935 3.84184C1.24185 3.87772 0.0394123 5.06166 0.00297485 6.49673C-0.0699001 8.07532 1.20541 9.36689 2.80866 9.36689C3.90179 9.36689 4.84916 8.75698 5.28641 7.86006C5.43216 7.53716 5.7601 7.3219 6.12448 7.3219H6.27022C6.59816 7.3219 6.88966 7.46541 7.03541 7.71655L7.2176 7.96769C7.43622 8.2547 7.39979 8.64935 7.2176 8.93636C6.88966 9.43864 6.74391 10.0127 6.81679 10.6585C6.9261 11.95 8.01922 12.9905 9.29454 13.134C11.08 13.3133 12.5375 11.8424 12.3917 10.1203C12.3188 9.07987 11.5537 8.14707 10.497 7.82418Z" transform="translate(4.33203 5.22119)" fill="#FEFEFE"/>
</svg>
