<svg width="23" height="24" viewBox="0 0 23 24" fill="none" xmlns="http://www.w3.org/2000/svg">
<path d="M11.5 23C17.8513 23 23 17.8513 23 11.5C23 5.14873 17.8513 0 11.5 0C5.14873 0 0 5.14873 0 11.5C0 17.8513 5.14873 23 11.5 23Z" transform="translate(0 0.201172)" fill="#302C2C"/>
<path fill-rule="evenodd" clip-rule="evenodd" d="M7.54381 15.8125C7.34987 15.7922 7.15563 15.7745 6.96204 15.7511C5.90846 15.624 4.92112 15.2963 3.99933 14.7712C3.98548 14.7633 3.973 14.753 3.94636 14.7345C5.53226 13.5495 7.11061 12.3701 8.69777 11.1842C8.85889 11.3412 9.01735 11.4953 9.17544 11.6498C9.44102 11.9094 9.7089 12.1666 9.96994 12.4306C10.0341 12.4955 10.0808 12.4944 10.1568 12.456C10.9578 12.0506 11.6126 11.48 12.1176 10.7381C12.1418 10.7026 12.1657 10.6669 12.1942 10.6247C12.2168 10.6507 12.2374 10.6714 12.2547 10.6946C12.8063 11.4285 13.3568 12.1632 13.9103 12.8957C13.9581 12.9591 13.9521 12.9967 13.9014 13.0542C12.6195 14.5099 11.0273 15.4073 9.10789 15.7141C8.86613 15.7528 8.62053 15.7674 8.37677 15.794C8.34436 15.7976 8.31251 15.8062 8.28041 15.8125H7.54381ZM8.2406 0C8.37508 0.0135252 8.5095 0.0277266 8.64406 0.0404561C9.77623 0.147544 10.8358 0.483365 11.823 1.04717C11.8369 1.05506 11.8493 1.06544 11.8733 1.08235C10.2616 2.23831 8.65736 3.38885 7.04418 4.54578C6.98085 4.48574 6.91858 4.42802 6.85778 4.36882C6.51809 4.03813 6.17748 3.70836 5.84058 3.37486C5.78658 3.32142 5.74555 3.31547 5.67816 3.34917C4.86243 3.75683 4.19865 4.33674 3.68771 5.09143C3.6692 5.11875 3.65066 5.14608 3.61487 5.19887C3.0221 4.40912 2.43692 3.62946 1.84137 2.83599C2.02015 2.64626 2.18543 2.45756 2.36448 2.28295C3.53127 1.14512 4.91561 0.421388 6.52088 0.13018C6.82991 0.0741099 7.14571 0.0555129 7.45833 0.0189751C7.49371 0.014838 7.5286 0.00642445 7.56372 0H8.2406ZM1.04887 3.97784C2.25321 5.55657 3.44445 7.11808 4.63904 8.68404C4.3954 8.93386 4.15501 9.18053 3.91442 9.42703C3.73384 9.61208 3.55498 9.79891 3.37101 9.98057C3.31889 10.032 3.31716 10.0718 3.34868 10.1351C3.75526 10.9509 4.33566 11.6141 5.0904 12.1254C5.11508 12.1421 5.14003 12.1585 5.16424 12.1759C5.16881 12.1792 5.17041 12.1866 5.18353 12.2111C4.40725 12.7932 3.6286 13.377 2.8396 13.9686C1.43839 12.7625 0.528511 11.2751 0.163376 9.47186C-0.227639 7.54085 0.0892983 5.71668 1.04887 3.97784ZM11.237 7.11856C11.4606 6.88632 11.6785 6.65978 11.8966 6.43345C12.0806 6.24251 12.2622 6.0491 12.4507 5.86265C12.5093 5.80461 12.5084 5.76101 12.4741 5.69179C12.0642 4.866 11.4785 4.19494 10.713 3.6804C10.6863 3.66244 10.6605 3.64321 10.6156 3.61127C11.4043 3.01934 12.1828 2.43517 12.972 1.84297C14.307 2.98627 15.1931 4.39416 15.5999 6.09405C16.1077 8.21575 15.6554 10.3147 14.7756 11.7924C13.5977 10.2366 12.4217 8.68332 11.237 7.11856Z" transform="translate(3.59375 3.79492)" fill="white"/>
</svg>
